<svg width="1001" height="230" viewBox="0 0 1001 230" fill="none" xmlns="http://www.w3.org/2000/svg">
<path d="M107.903 55L106.151 48.43H91.4045L89.6525 55H73.9575L90.2365 3.9H107.319L123.598 55H107.903ZM94.5435 36.75H103.012L98.7775 21.055L94.5435 36.75ZM126.529 3.9H141.129V55H126.529V3.9ZM194.784 18.062H177.629V24.705H194.419V38.867H177.629V55H163.029V3.9H194.784V18.062ZM206.657 15.726C204.613 15.726 202.837 14.996 201.328 13.536C199.868 12.0273 199.138 10.2753 199.138 8.28C199.138 6.28466 199.868 4.557 201.328 3.097C202.837 1.58833 204.613 0.833997 206.657 0.833997C208.653 0.833997 210.38 1.58833 211.84 3.097C213.349 4.557 214.103 6.28466 214.103 8.28C214.103 10.2753 213.349 12.0273 211.84 13.536C210.38 14.996 208.653 15.726 206.657 15.726ZM199.868 55V18.5H213.373V55H199.868ZM242.475 17.478C246.465 17.478 249.653 18.865 252.038 21.639C254.471 24.3643 255.688 28.4523 255.688 33.903V55H242.183V35.363C242.183 32.1023 240.674 30.472 237.657 30.472C236.051 30.472 234.81 30.983 233.934 32.005C233.106 33.027 232.693 34.4383 232.693 36.239V55H219.188V18.5H232.693V22.077C234.931 19.011 238.192 17.478 242.475 17.478ZM285.927 3.9H299.432V55H285.927V51.715C283.591 54.5863 280.331 56.022 276.145 56.022C271.23 56.022 267.215 54.197 264.1 50.547C260.986 46.897 259.428 42.298 259.428 36.75C259.428 31.202 260.986 26.603 264.1 22.953C267.215 19.303 271.23 17.478 276.145 17.478C280.331 17.478 283.591 18.9137 285.927 21.785V3.9ZM274.685 41.641C275.902 42.955 277.484 43.612 279.43 43.612C281.377 43.612 282.934 42.955 284.102 41.641C285.319 40.327 285.927 38.6967 285.927 36.75C285.927 34.8033 285.319 33.173 284.102 31.859C282.934 30.545 281.377 29.888 279.43 29.888C277.484 29.888 275.902 30.545 274.685 31.859C273.517 33.173 272.933 34.8033 272.933 36.75C272.933 38.6967 273.517 40.327 274.685 41.641ZM318.372 29.231C318.372 29.815 318.81 30.2773 319.686 30.618C320.61 30.9587 321.754 31.2263 323.117 31.421C324.479 31.567 325.939 31.8833 327.497 32.37C329.054 32.8567 330.514 33.465 331.877 34.195C333.239 34.925 334.359 36.093 335.235 37.699C336.159 39.2563 336.622 41.1543 336.622 43.393C336.622 45.729 336.086 47.773 335.016 49.525C333.994 51.277 332.631 52.591 330.928 53.467C329.224 54.343 327.472 54.9757 325.672 55.365C323.92 55.803 322.095 56.022 320.197 56.022C311.388 56.022 305.694 53.1263 303.115 47.335L314.868 42.079C315.792 44.561 317.52 45.802 320.051 45.802C321.705 45.802 322.533 45.2667 322.533 44.196C322.533 43.5633 321.924 43.0523 320.708 42.663C319.491 42.2737 318.031 41.8843 316.328 41.495C314.624 41.057 312.897 40.4973 311.145 39.816C309.441 39.086 307.981 37.8937 306.765 36.239C305.548 34.5843 304.94 32.516 304.94 30.034C304.94 26.0433 306.448 22.953 309.466 20.763C312.532 18.573 316.06 17.478 320.051 17.478C328.032 17.478 333.312 20.5683 335.892 26.749L324.723 30.764C323.847 28.72 322.484 27.698 320.635 27.698C319.126 27.698 318.372 28.209 318.372 29.231ZM370.608 40.838H387.398V55H356.008V3.9H370.608V40.838ZM408.74 56.022C403.289 56.022 398.642 54.1727 394.797 50.474C391.001 46.7753 389.103 42.2007 389.103 36.75C389.103 31.2993 391.001 26.7247 394.797 23.026C398.593 19.3273 403.241 17.478 408.74 17.478C414.239 17.478 418.887 19.3273 422.683 23.026C426.479 26.7247 428.377 31.2993 428.377 36.75C428.377 42.2007 426.479 46.7753 422.683 50.474C418.887 54.1727 414.239 56.022 408.74 56.022ZM404.287 41.422C405.455 42.59 406.939 43.174 408.74 43.174C410.541 43.174 412.001 42.59 413.12 41.422C414.288 40.2053 414.872 38.648 414.872 36.75C414.872 34.852 414.288 33.319 413.12 32.151C412.001 30.9343 410.541 30.326 408.74 30.326C406.939 30.326 405.455 30.9343 404.287 32.151C403.168 33.319 402.608 34.852 402.608 36.75C402.608 38.648 403.168 40.2053 404.287 41.422ZM450.512 56.022C444.915 56.022 440.268 54.197 436.569 50.547C432.87 46.8483 431.021 42.2493 431.021 36.75C431.021 31.2507 432.87 26.676 436.569 23.026C440.268 19.3273 444.915 17.478 450.512 17.478C454.113 17.478 457.398 18.354 460.367 20.106C463.384 21.8093 465.696 24.121 467.302 27.041L455.914 33.538C454.697 31.494 452.897 30.472 450.512 30.472C448.809 30.472 447.373 31.0803 446.205 32.297C445.086 33.465 444.526 34.9493 444.526 36.75C444.526 38.5507 445.086 40.0593 446.205 41.276C447.373 42.444 448.809 43.028 450.512 43.028C453.043 43.028 454.843 41.9817 455.914 39.889L467.302 46.459C465.696 49.4277 463.384 51.7637 460.367 53.467C457.398 55.1703 454.113 56.022 450.512 56.022ZM494.804 18.5H508.309V55H494.804V51.715C492.468 54.5863 489.208 56.022 485.022 56.022C480.107 56.022 476.092 54.197 472.977 50.547C469.863 46.897 468.305 42.298 468.305 36.75C468.305 31.202 469.863 26.603 472.977 22.953C476.092 19.303 480.107 17.478 485.022 17.478C489.208 17.478 492.468 18.9137 494.804 21.785V18.5ZM483.562 41.641C484.779 42.955 486.361 43.612 488.307 43.612C490.254 43.612 491.811 42.955 492.979 41.641C494.196 40.327 494.804 38.6967 494.804 36.75C494.804 34.8033 494.196 33.173 492.979 31.859C491.811 30.545 490.254 29.888 488.307 29.888C486.361 29.888 484.779 30.545 483.562 31.859C482.394 33.173 481.81 34.8033 481.81 36.75C481.81 38.6967 482.394 40.327 483.562 41.641ZM514.182 55V1.71H527.687V55H514.182ZM581.695 28.647C586.075 31.129 588.265 34.9007 588.265 39.962C588.265 44.634 586.732 48.3083 583.666 50.985C580.649 53.6617 576.245 55 570.453 55H548.845V3.9H569.139C574.882 3.9 579.262 5.141 582.279 7.623C585.297 10.105 586.805 13.6577 586.805 18.281C586.805 22.7097 585.102 26.165 581.695 28.647ZM568.263 16.456H563.445V23.318L569.066 23.245C571.159 22.953 572.205 21.8337 572.205 19.887C572.205 18.7677 571.816 17.916 571.037 17.332C570.259 16.748 569.334 16.456 568.263 16.456ZM569.577 42.444C570.745 42.444 571.719 42.1033 572.497 41.422C573.276 40.7407 573.665 39.8647 573.665 38.794C573.665 36.75 572.57 35.5577 570.38 35.217L563.445 35.144V42.444H569.577ZM599.104 15.726C597.06 15.726 595.283 14.996 593.775 13.536C592.315 12.0273 591.585 10.2753 591.585 8.28C591.585 6.28466 592.315 4.557 593.775 3.097C595.283 1.58833 597.06 0.833997 599.104 0.833997C601.099 0.833997 602.827 1.58833 604.287 3.097C605.795 4.557 606.55 6.28466 606.55 8.28C606.55 10.2753 605.795 12.0273 604.287 13.536C602.827 14.996 601.099 15.726 599.104 15.726ZM592.315 55V18.5H605.82V55H592.315ZM629.592 42.59H642.294V55H611.634V45.51L623.606 30.91H612.364V18.5H641.564V27.99L629.592 42.59ZM707.579 48.503C702.371 53.613 695.972 56.168 688.38 56.168C680.788 56.168 674.364 53.613 669.108 48.503C663.9 43.3443 661.297 36.9933 661.297 29.45C661.297 21.9067 663.9 15.58 669.108 10.47C674.364 5.31133 680.788 2.732 688.38 2.732C695.972 2.732 702.371 5.31133 707.579 10.47C712.835 15.58 715.463 21.9067 715.463 29.45C715.463 36.9933 712.835 43.3443 707.579 48.503ZM679.401 38.356C681.785 40.692 684.778 41.86 688.38 41.86C691.981 41.86 694.95 40.692 697.286 38.356C699.67 35.9713 700.863 33.0027 700.863 29.45C700.863 25.8973 699.67 22.953 697.286 20.617C694.95 18.2323 691.981 17.04 688.38 17.04C684.778 17.04 681.785 18.2323 679.401 20.617C677.065 22.953 675.897 25.8973 675.897 29.45C675.897 33.0027 677.065 35.9713 679.401 38.356ZM762.182 18.5H776.417L765.832 55H752.108L747.582 37.845L743.056 55H729.332L718.747 18.5H732.982L737.216 38.721L742.472 18.5H752.692L757.948 38.721L762.182 18.5ZM804.09 17.478C808.08 17.478 811.268 18.865 813.653 21.639C816.086 24.3643 817.303 28.4523 817.303 33.903V55H803.798V35.363C803.798 32.1023 802.289 30.472 799.272 30.472C797.666 30.472 796.425 30.983 795.549 32.005C794.721 33.027 794.308 34.4383 794.308 36.239V55H780.803V18.5H794.308V22.077C796.546 19.011 799.807 17.478 804.09 17.478ZM834.694 41.349C835.862 43.7823 838.344 44.999 842.14 44.999C844.379 44.999 846.447 44.2203 848.345 42.663L857.178 50.109C853.528 54.051 848.37 56.022 841.702 56.022C835.473 56.022 830.46 54.2213 826.664 50.62C822.917 46.97 821.043 42.3953 821.043 36.896C821.043 31.348 822.868 26.7247 826.518 23.026C830.217 19.3273 834.865 17.478 840.461 17.478C846.009 17.478 850.56 19.303 854.112 22.953C857.714 26.5543 859.514 31.1047 859.514 36.604C859.514 38.21 859.32 39.7917 858.93 41.349H834.694ZM834.475 32.662H846.739C845.912 29.742 843.941 28.282 840.826 28.282C837.663 28.282 835.546 29.742 834.475 32.662ZM877.003 25.581C877.684 23.099 879.023 21.1767 881.018 19.814C883.013 18.4513 885.325 17.77 887.953 17.77V32.37C885.033 31.9807 882.478 32.5647 880.288 34.122C878.098 35.6307 877.003 38.064 877.003 41.422V55H863.498V18.5H877.003V25.581ZM903.94 29.231C903.94 29.815 904.378 30.2773 905.254 30.618C906.179 30.9587 907.322 31.2263 908.685 31.421C910.048 31.567 911.508 31.8833 913.065 32.37C914.622 32.8567 916.082 33.465 917.445 34.195C918.808 34.925 919.927 36.093 920.803 37.699C921.728 39.2563 922.19 41.1543 922.19 43.393C922.19 45.729 921.655 47.773 920.584 49.525C919.562 51.277 918.199 52.591 916.496 53.467C914.793 54.343 913.041 54.9757 911.24 55.365C909.488 55.803 907.663 56.022 905.765 56.022C896.956 56.022 891.262 53.1263 888.683 47.335L900.436 42.079C901.361 44.561 903.088 45.802 905.619 45.802C907.274 45.802 908.101 45.2667 908.101 44.196C908.101 43.5633 907.493 43.0523 906.276 42.663C905.059 42.2737 903.599 41.8843 901.896 41.495C900.193 41.057 898.465 40.4973 896.713 39.816C895.01 39.086 893.55 37.8937 892.333 36.239C891.116 34.5843 890.508 32.516 890.508 30.034C890.508 26.0433 892.017 22.953 895.034 20.763C898.1 18.573 901.628 17.478 905.619 17.478C913.6 17.478 918.881 20.5683 921.46 26.749L910.291 30.764C909.415 28.72 908.052 27.698 906.203 27.698C904.694 27.698 903.94 28.209 903.94 29.231ZM14.4662 137L0.012207 85.9H16.0722L23.0072 114.005L31.2562 85.9H42.4982L50.7472 114.005L57.6822 85.9H73.7422L59.2882 137H44.9072L36.8772 109.698L28.8472 137H14.4662ZM98.5063 99.478C102.497 99.478 105.685 100.865 108.069 103.639C110.503 106.364 111.719 110.452 111.719 115.903V137H98.2143V117.363C98.2143 114.102 96.7057 112.472 93.6883 112.472C92.0823 112.472 90.8413 112.983 89.9653 114.005C89.138 115.027 88.7243 116.438 88.7243 118.239V137H75.2193V85.9H88.7243V104.077C90.963 101.011 94.2237 99.478 98.5063 99.478ZM135.097 138.022C129.646 138.022 124.999 136.173 121.154 132.474C117.358 128.775 115.46 124.201 115.46 118.75C115.46 113.299 117.358 108.725 121.154 105.026C124.95 101.327 129.598 99.478 135.097 99.478C140.596 99.478 145.244 101.327 149.04 105.026C152.836 108.725 154.734 113.299 154.734 118.75C154.734 124.201 152.836 128.775 149.04 132.474C145.244 136.173 140.596 138.022 135.097 138.022ZM130.644 123.422C131.812 124.59 133.296 125.174 135.097 125.174C136.898 125.174 138.358 124.59 139.477 123.422C140.645 122.205 141.229 120.648 141.229 118.75C141.229 116.852 140.645 115.319 139.477 114.151C138.358 112.934 136.898 112.326 135.097 112.326C133.296 112.326 131.812 112.934 130.644 114.151C129.525 115.319 128.965 116.852 128.965 118.75C128.965 120.648 129.525 122.205 130.644 123.422ZM202.068 85.9H216.668V137H204.988L188.928 113.64V137H174.328V85.9H186.008L202.068 109.26V85.9ZM235.26 123.349C236.428 125.782 238.91 126.999 242.706 126.999C244.945 126.999 247.013 126.22 248.911 124.663L257.744 132.109C254.094 136.051 248.936 138.022 242.268 138.022C236.039 138.022 231.026 136.221 227.23 132.62C223.483 128.97 221.609 124.395 221.609 118.896C221.609 113.348 223.434 108.725 227.084 105.026C230.783 101.327 235.431 99.478 241.027 99.478C246.575 99.478 251.126 101.303 254.678 104.953C258.28 108.554 260.08 113.105 260.08 118.604C260.08 120.21 259.886 121.792 259.496 123.349H235.26ZM235.041 114.662H247.305C246.478 111.742 244.507 110.282 241.392 110.282C238.229 110.282 236.112 111.742 235.041 114.662ZM276.252 123.349C277.42 125.782 279.902 126.999 283.698 126.999C285.936 126.999 288.005 126.22 289.903 124.663L298.736 132.109C295.086 136.051 289.927 138.022 283.26 138.022C277.03 138.022 272.018 136.221 268.222 132.62C264.474 128.97 262.601 124.395 262.601 118.896C262.601 113.348 264.426 108.725 268.076 105.026C271.774 101.327 276.422 99.478 282.019 99.478C287.567 99.478 292.117 101.303 295.67 104.953C299.271 108.554 301.072 113.105 301.072 118.604C301.072 120.21 300.877 121.792 300.488 123.349H276.252ZM276.033 114.662H288.297C287.469 111.742 285.498 110.282 282.384 110.282C279.22 110.282 277.103 111.742 276.033 114.662ZM330.091 85.9H343.596V137H330.091V133.715C327.755 136.586 324.494 138.022 320.309 138.022C315.393 138.022 311.378 136.197 308.264 132.547C305.149 128.897 303.592 124.298 303.592 118.75C303.592 113.202 305.149 108.603 308.264 104.953C311.378 101.303 315.393 99.478 320.309 99.478C324.494 99.478 327.755 100.914 330.091 103.785V85.9ZM318.849 123.641C320.065 124.955 321.647 125.612 323.594 125.612C325.541 125.612 327.098 124.955 328.266 123.641C329.482 122.327 330.091 120.697 330.091 118.75C330.091 116.803 329.482 115.173 328.266 113.859C327.098 112.545 325.541 111.888 323.594 111.888C321.647 111.888 320.065 112.545 318.849 113.859C317.681 115.173 317.097 116.803 317.097 118.75C317.097 120.697 317.681 122.327 318.849 123.641ZM391.823 85.9H406.423V137H391.823V118.166H379.413V137H364.813V85.9H379.413V104.004H391.823V85.9ZM425.032 123.349C426.2 125.782 428.682 126.999 432.478 126.999C434.717 126.999 436.785 126.22 438.683 124.663L447.516 132.109C443.866 136.051 438.707 138.022 432.04 138.022C425.811 138.022 420.798 136.221 417.002 132.62C413.255 128.97 411.381 124.395 411.381 118.896C411.381 113.348 413.206 108.725 416.856 105.026C420.555 101.327 425.202 99.478 430.799 99.478C436.347 99.478 440.897 101.303 444.45 104.953C448.051 108.554 449.852 113.105 449.852 118.604C449.852 120.21 449.657 121.792 449.268 123.349H425.032ZM424.813 114.662H437.077C436.25 111.742 434.279 110.282 431.164 110.282C428.001 110.282 425.884 111.742 424.813 114.662ZM453.836 137V83.71H467.341V137H453.836ZM496.442 99.478C501.357 99.478 505.372 101.303 508.487 104.953C511.602 108.603 513.159 113.202 513.159 118.75C513.159 124.298 511.602 128.897 508.487 132.547C505.372 136.197 501.357 138.022 496.442 138.022C492.257 138.022 488.996 136.586 486.66 133.715V151.6H473.155V100.5H486.66V103.785C488.996 100.914 492.257 99.478 496.442 99.478ZM488.412 123.641C489.629 124.955 491.21 125.612 493.157 125.612C495.104 125.612 496.661 124.955 497.829 123.641C499.046 122.327 499.654 120.697 499.654 118.75C499.654 116.803 499.046 115.173 497.829 113.859C496.661 112.545 495.104 111.888 493.157 111.888C491.21 111.888 489.629 112.545 488.412 113.859C487.244 115.173 486.66 116.803 486.66 118.75C486.66 120.697 487.244 122.327 488.412 123.641ZM556.933 100.5H570.438V137H556.933V133.715C554.597 136.586 551.336 138.022 547.151 138.022C542.235 138.022 538.22 136.197 535.106 132.547C531.991 128.897 530.434 124.298 530.434 118.75C530.434 113.202 531.991 108.603 535.106 104.953C538.22 101.303 542.235 99.478 547.151 99.478C551.336 99.478 554.597 100.914 556.933 103.785V100.5ZM545.691 123.641C546.907 124.955 548.489 125.612 550.436 125.612C552.382 125.612 553.94 124.955 555.108 123.641C556.324 122.327 556.933 120.697 556.933 118.75C556.933 116.803 556.324 115.173 555.108 113.859C553.94 112.545 552.382 111.888 550.436 111.888C548.489 111.888 546.907 112.545 545.691 113.859C544.523 115.173 543.939 116.803 543.939 118.75C543.939 120.697 544.523 122.327 545.691 123.641ZM599.597 99.478C603.588 99.478 606.775 100.865 609.16 103.639C611.593 106.364 612.81 110.452 612.81 115.903V137H599.305V117.363C599.305 114.102 597.796 112.472 594.779 112.472C593.173 112.472 591.932 112.983 591.056 114.005C590.229 115.027 589.815 116.438 589.815 118.239V137H576.31V100.5H589.815V104.077C592.054 101.011 595.314 99.478 599.597 99.478ZM643.05 85.9H656.555V137H643.05V133.715C640.714 136.586 637.453 138.022 633.268 138.022C628.352 138.022 624.337 136.197 621.223 132.547C618.108 128.897 616.551 124.298 616.551 118.75C616.551 113.202 618.108 108.603 621.223 104.953C624.337 101.303 628.352 99.478 633.268 99.478C637.453 99.478 640.714 100.914 643.05 103.785V85.9ZM631.808 123.641C633.024 124.955 634.606 125.612 636.553 125.612C638.499 125.612 640.057 124.955 641.225 123.641C642.441 122.327 643.05 120.697 643.05 118.75C643.05 116.803 642.441 115.173 641.225 113.859C640.057 112.545 638.499 111.888 636.553 111.888C634.606 111.888 633.024 112.545 631.808 113.859C630.64 115.173 630.056 116.803 630.056 118.75C630.056 120.697 630.64 122.327 631.808 123.641ZM548.271 182.062H531.116V188.705H547.906V202.867H531.116V219H516.516V167.9H548.271V182.062ZM571.386 220.022C565.935 220.022 561.288 218.173 557.443 214.474C553.647 210.775 551.749 206.201 551.749 200.75C551.749 195.299 553.647 190.725 557.443 187.026C561.239 183.327 565.887 181.478 571.386 181.478C576.885 181.478 581.533 183.327 585.329 187.026C589.125 190.725 591.023 195.299 591.023 200.75C591.023 206.201 589.125 210.775 585.329 214.474C581.533 218.173 576.885 220.022 571.386 220.022ZM566.933 205.422C568.101 206.59 569.585 207.174 571.386 207.174C573.187 207.174 574.647 206.59 575.766 205.422C576.934 204.205 577.518 202.648 577.518 200.75C577.518 198.852 576.934 197.319 575.766 196.151C574.647 194.934 573.187 194.326 571.386 194.326C569.585 194.326 568.101 194.934 566.933 196.151C565.814 197.319 565.254 198.852 565.254 200.75C565.254 202.648 565.814 204.205 566.933 205.422ZM608.778 189.581C609.459 187.099 610.798 185.177 612.793 183.814C614.788 182.451 617.1 181.77 619.728 181.77V196.37C616.808 195.981 614.253 196.565 612.063 198.122C609.873 199.631 608.778 202.064 608.778 205.422V219H595.273V182.5H608.778V189.581ZM684.614 167.9L667.313 199.582V219H652.713V199.582L635.412 167.9H651.618L660.013 185.858L668.408 167.9H684.614ZM698.281 220.022C692.83 220.022 688.182 218.173 684.338 214.474C680.542 210.775 678.644 206.201 678.644 200.75C678.644 195.299 680.542 190.725 684.338 187.026C688.134 183.327 692.781 181.478 698.281 181.478C703.78 181.478 708.428 183.327 712.224 187.026C716.02 190.725 717.918 195.299 717.918 200.75C717.918 206.201 716.02 210.775 712.224 214.474C708.428 218.173 703.78 220.022 698.281 220.022ZM693.828 205.422C694.996 206.59 696.48 207.174 698.281 207.174C700.081 207.174 701.541 206.59 702.661 205.422C703.829 204.205 704.413 202.648 704.413 200.75C704.413 198.852 703.829 197.319 702.661 196.151C701.541 194.934 700.081 194.326 698.281 194.326C696.48 194.326 694.996 194.934 693.828 196.151C692.708 197.319 692.149 198.852 692.149 200.75C692.149 202.648 692.708 204.205 693.828 205.422ZM744.798 182.5H758.303V219H744.798V215.423C742.559 218.489 739.298 220.022 735.016 220.022C731.025 220.022 727.813 218.659 725.38 215.934C722.995 213.16 721.803 209.048 721.803 203.597V182.5H735.308V202.137C735.308 205.398 736.816 207.028 739.834 207.028C741.44 207.028 742.656 206.517 743.484 205.495C744.36 204.473 744.798 203.062 744.798 201.261V182.5ZM766.712 200.02L764.157 182.5V167.9H780.947V182.5L778.392 200.02H766.712ZM778.465 217.686C776.859 219.292 774.888 220.095 772.552 220.095C770.216 220.095 768.22 219.292 766.566 217.686C764.96 216.031 764.157 214.036 764.157 211.7C764.157 209.364 764.96 207.393 766.566 205.787C768.22 204.132 770.216 203.305 772.552 203.305C774.888 203.305 776.859 204.132 778.465 205.787C780.119 207.393 780.947 209.364 780.947 211.7C780.947 214.036 780.119 216.031 778.465 217.686Z" fill="white"/>
<path d="M693.613 138.168C688.065 138.168 683.587 137.049 680.181 134.81C676.823 132.523 674.535 129.359 673.319 125.32L685.948 118.823C687.505 122.716 690.474 124.663 694.854 124.663C698.309 124.663 700.207 123.763 700.548 121.962C700.645 121.378 700.548 120.867 700.256 120.429C699.964 119.991 699.453 119.602 698.723 119.261C697.993 118.92 697.311 118.628 696.679 118.385C696.046 118.142 695.146 117.85 693.978 117.509C692.858 117.168 691.982 116.901 691.35 116.706C682.298 113.543 678.477 107.946 679.889 99.916C680.716 95.3413 682.955 91.667 686.605 88.893C690.255 86.119 694.708 84.732 699.964 84.732C704.344 84.732 708.091 85.754 711.206 87.798C714.32 89.842 716.681 92.7863 718.287 96.631L705.95 103.201C704.684 99.8917 702.373 98.237 699.015 98.237C696.484 98.237 695.024 99.113 694.635 100.865C694.44 101.936 694.878 102.812 695.949 103.493C697.019 104.174 699.209 105.075 702.519 106.194C704.611 106.875 706.339 107.581 707.702 108.311C709.113 108.992 710.524 109.966 711.936 111.231C713.396 112.496 714.369 114.127 714.856 116.122C715.391 118.117 715.44 120.453 715.002 123.13C714.126 128.094 711.814 131.841 708.067 134.372C704.368 136.903 699.55 138.168 693.613 138.168ZM740.319 99.478C745.965 99.478 750.296 101.352 753.313 105.099C756.379 108.846 757.45 113.348 756.525 118.604C756.282 120.161 755.82 121.743 755.138 123.349H731.34C732.119 125.782 734.285 126.999 737.837 126.999C740.611 126.999 742.85 126.22 744.553 124.663L752.364 132.547C748.13 136.197 742.874 138.022 736.596 138.022C730.026 138.022 725.16 136.1 721.996 132.255C718.833 128.41 717.738 123.665 718.711 118.02C719.587 112.667 722.045 108.238 726.084 104.734C730.124 101.23 734.869 99.478 740.319 99.478ZM732.654 114.662H744.699C744.505 111.742 742.874 110.282 739.808 110.282C736.548 110.282 734.163 111.742 732.654 114.662ZM757.382 137L761.543 113.348L766.726 83.71H780.231L774.975 113.567L770.887 137H757.382ZM776.773 137L780.934 113.348L786.117 83.71H799.622L794.366 113.567L790.278 137H776.773ZM812.077 138.022C807.795 138.022 804.266 137.341 801.492 135.978C798.718 134.615 796.65 132.304 795.287 129.043L806.748 123.568C807.819 126.342 809.717 127.729 812.442 127.729C814.194 127.729 815.168 127.218 815.362 126.196C815.508 125.515 814.997 124.931 813.829 124.444C812.661 123.957 811.226 123.471 809.522 122.984C807.819 122.449 806.14 121.792 804.485 121.013C802.879 120.186 801.59 118.896 800.616 117.144C799.692 115.343 799.448 113.153 799.886 110.574C800.324 108.043 801.419 105.902 803.171 104.15C804.972 102.398 806.943 101.181 809.084 100.5C811.274 99.8187 813.586 99.478 816.019 99.478C819.523 99.478 822.589 100.184 825.217 101.595C827.845 103.006 829.768 105.123 830.984 107.946L820.18 112.983C819.304 110.744 817.869 109.552 815.873 109.406C814.413 109.309 813.562 109.844 813.318 111.012C813.172 111.742 813.489 112.35 814.267 112.837C815.095 113.324 816.165 113.713 817.479 114.005C818.793 114.248 820.205 114.662 821.713 115.246C823.222 115.83 824.585 116.536 825.801 117.363C827.018 118.142 827.918 119.383 828.502 121.086C829.135 122.789 829.232 124.833 828.794 127.218C828.113 131.014 826.191 133.764 823.027 135.467C819.913 137.17 816.263 138.022 812.077 138.022ZM899.437 85.9L877.756 114.881L873.887 137H859.287L863.156 114.954L851.695 85.9H867.025L871.989 101.376L882.355 85.9H899.437ZM918.778 132.62C914.885 136.221 909.945 138.022 903.959 138.022C897.973 138.022 893.423 135.978 890.308 131.89C887.242 127.802 886.172 123.13 887.096 117.874C887.972 112.813 890.381 108.481 894.323 104.88C898.265 101.279 903.254 99.478 909.288 99.478C915.128 99.478 919.606 101.546 922.72 105.683C925.884 109.771 927.003 114.419 926.078 119.626C925.154 124.687 922.72 129.019 918.778 132.62ZM901.039 123.422C902.013 124.59 903.4 125.174 905.2 125.174C907.001 125.174 908.558 124.59 909.872 123.422C911.235 122.205 912.087 120.648 912.427 118.75C912.768 116.852 912.476 115.319 911.551 114.151C910.627 112.934 909.264 112.326 907.463 112.326C905.663 112.326 904.081 112.934 902.718 114.151C901.356 115.319 900.504 116.852 900.163 118.75C899.823 120.648 900.115 122.205 901.039 123.422ZM956.316 100.5H969.821L963.397 137H949.892L950.549 133.423C947.727 136.489 944.247 138.022 940.11 138.022C936.217 138.022 933.248 136.611 931.204 133.788C929.209 130.917 928.674 126.853 929.598 121.597L933.321 100.5H946.826L943.395 120.137C942.811 123.398 944.028 125.028 947.045 125.028C950.16 125.028 952.107 123.276 952.885 119.772L956.316 100.5ZM987.939 107.581C989.01 105.099 990.616 103.177 992.757 101.814C994.947 100.451 997.454 99.77 1000.28 99.77L997.721 114.37C994.85 113.981 992.198 114.516 989.764 115.976C987.331 117.436 985.798 119.918 985.165 123.422L985.238 122.838L982.756 137H969.251L975.675 100.5H989.18L987.939 107.581ZM233.656 220.168C228.108 220.168 223.63 219.049 220.224 216.81C216.866 214.523 214.578 211.359 213.362 207.32L225.991 200.823C227.548 204.716 230.517 206.663 234.897 206.663C238.352 206.663 240.25 205.763 240.591 203.962C240.688 203.378 240.591 202.867 240.299 202.429C240.007 201.991 239.496 201.602 238.766 201.261C238.036 200.92 237.354 200.628 236.722 200.385C236.089 200.142 235.189 199.85 234.021 199.509C232.901 199.168 232.025 198.901 231.393 198.706C222.341 195.543 218.52 189.946 219.932 181.916C220.759 177.341 222.998 173.667 226.648 170.893C230.298 168.119 234.751 166.732 240.007 166.732C244.387 166.732 248.134 167.754 251.249 169.798C254.363 171.842 256.724 174.786 258.33 178.631L245.993 185.201C244.727 181.892 242.416 180.237 239.058 180.237C236.527 180.237 235.067 181.113 234.678 182.865C234.483 183.936 234.921 184.812 235.992 185.493C237.062 186.174 239.252 187.075 242.562 188.194C244.654 188.875 246.382 189.581 247.745 190.311C249.156 190.992 250.567 191.966 251.979 193.231C253.439 194.496 254.412 196.127 254.899 198.122C255.434 200.117 255.483 202.453 255.045 205.13C254.169 210.094 251.857 213.841 248.11 216.372C244.411 218.903 239.593 220.168 233.656 220.168ZM280.362 181.478C286.008 181.478 290.339 183.352 293.356 187.099C296.422 190.846 297.493 195.348 296.568 200.604C296.325 202.161 295.863 203.743 295.181 205.349H271.383C272.162 207.782 274.328 208.999 277.88 208.999C280.654 208.999 282.893 208.22 284.596 206.663L292.407 214.547C288.173 218.197 282.917 220.022 276.639 220.022C270.069 220.022 265.203 218.1 262.039 214.255C258.876 210.41 257.781 205.665 258.754 200.02C259.63 194.667 262.088 190.238 266.127 186.734C270.167 183.23 274.912 181.478 280.362 181.478ZM272.697 196.662H284.742C284.548 193.742 282.917 192.282 279.851 192.282C276.591 192.282 274.206 193.742 272.697 196.662ZM316.04 189.581C317.111 187.099 318.717 185.177 320.858 183.814C323.048 182.451 325.554 181.77 328.377 181.77L325.822 196.37C322.951 195.981 320.298 196.516 317.865 197.976C315.432 199.436 313.899 201.918 313.266 205.422L313.339 204.838L310.857 219H297.352L303.776 182.5H317.281L316.04 189.581ZM355.361 182.5H370.18L350.251 219H336.381L329.3 182.5H342.951L345.798 201.334L355.361 182.5ZM386.136 177.536C384.481 178.996 382.608 179.726 380.515 179.726C378.422 179.726 376.743 178.996 375.478 177.536C374.261 176.027 373.823 174.275 374.164 172.28C374.456 170.333 375.429 168.606 377.084 167.097C378.739 165.588 380.661 164.834 382.851 164.834C384.944 164.834 386.598 165.588 387.815 167.097C389.032 168.557 389.47 170.285 389.129 172.28C388.788 174.324 387.791 176.076 386.136 177.536ZM366.645 219L373.069 182.5H386.574L380.15 219H366.645ZM404.729 220.022C398.791 220.022 394.217 218.1 391.005 214.255C387.793 210.362 386.649 205.617 387.574 200.02C388.498 194.569 391.005 190.116 395.093 186.661C399.181 183.206 403.926 181.478 409.328 181.478C413.172 181.478 416.409 182.378 419.037 184.179C421.713 185.931 423.757 188.243 425.169 191.114L412.905 197.538C412.077 195.494 410.471 194.472 408.087 194.472C406.286 194.472 404.729 195.056 403.415 196.224C402.101 197.392 401.273 198.901 400.933 200.75C400.592 202.551 400.884 204.059 401.809 205.276C402.782 206.444 404.12 207.028 405.824 207.028C408.306 207.028 410.252 205.957 411.664 203.816L422.249 210.532C420.399 213.647 417.917 216.007 414.803 217.613C411.737 219.219 408.379 220.022 404.729 220.022ZM446.751 181.478C452.396 181.478 456.728 183.352 459.745 187.099C462.811 190.846 463.882 195.348 462.957 200.604C462.714 202.161 462.251 203.743 461.57 205.349H437.772C438.551 207.782 440.716 208.999 444.269 208.999C447.043 208.999 449.282 208.22 450.985 206.663L458.796 214.547C454.562 218.197 449.306 220.022 443.028 220.022C436.458 220.022 431.591 218.1 428.428 214.255C425.265 210.41 424.17 205.665 425.143 200.02C426.019 194.667 428.477 190.238 432.516 186.734C436.555 183.23 441.3 181.478 446.751 181.478ZM439.086 196.662H451.131C450.936 193.742 449.306 192.282 446.24 192.282C442.979 192.282 440.595 193.742 439.086 196.662ZM479.015 220.022C474.732 220.022 471.204 219.341 468.43 217.978C465.656 216.615 463.587 214.304 462.225 211.043L473.686 205.568C474.756 208.342 476.654 209.729 479.38 209.729C481.132 209.729 482.105 209.218 482.3 208.196C482.446 207.515 481.935 206.931 480.767 206.444C479.599 205.957 478.163 205.471 476.46 204.984C474.756 204.449 473.077 203.792 471.423 203.013C469.817 202.186 468.527 200.896 467.554 199.144C466.629 197.343 466.386 195.153 466.824 192.574C467.262 190.043 468.357 187.902 470.109 186.15C471.909 184.398 473.88 183.181 476.022 182.5C478.212 181.819 480.523 181.478 482.957 181.478C486.461 181.478 489.527 182.184 492.155 183.595C494.783 185.006 496.705 187.123 497.922 189.946L487.118 194.983C486.242 192.744 484.806 191.552 482.811 191.406C481.351 191.309 480.499 191.844 480.256 193.012C480.11 193.742 480.426 194.35 481.205 194.837C482.032 195.324 483.103 195.713 484.417 196.005C485.731 196.248 487.142 196.662 488.651 197.246C490.159 197.83 491.522 198.536 492.739 199.363C493.955 200.142 494.856 201.383 495.44 203.086C496.072 204.789 496.17 206.833 495.732 209.218C495.05 213.014 493.128 215.764 489.965 217.467C486.85 219.17 483.2 220.022 479.015 220.022Z" fill="#FF5811"/>
<path d="M674.122 144.3H998.013V147.95H674.122V144.3ZM214.165 226.3H498.287V229.95H214.165V226.3Z" fill="#FF5811"/>
<path d="M498.251 226.3H512.851V229.95H498.251V226.3Z" fill="#FF5811"/>
</svg>
