<svg width="890" height="25" viewBox="0 0 890 25" fill="none" xmlns="http://www.w3.org/2000/svg">
<path d="M6.67588 19.325C5.04255 19.325 3.64255 18.9417 2.47588 18.175C1.32588 17.4083 0.517546 16.3583 0.050879 15.025L2.05088 13.875C2.73421 15.9917 4.29255 17.05 6.72588 17.05C7.92588 17.05 8.84255 16.8083 9.47588 16.325C10.1092 15.825 10.4259 15.1667 10.4259 14.35C10.4259 13.5167 10.1092 12.8917 9.47588 12.475C8.84255 12.0583 7.78421 11.6167 6.30088 11.15C5.56755 10.9167 5.00921 10.7333 4.62588 10.6C4.24255 10.45 3.75921 10.2333 3.17588 9.95C2.60921 9.65 2.18421 9.35 1.90088 9.05C1.61755 8.73333 1.35921 8.325 1.12588 7.825C0.909212 7.325 0.800879 6.75833 0.800879 6.125C0.800879 4.60833 1.33421 3.40833 2.40088 2.525C3.46755 1.625 4.76755 1.175 6.30088 1.175C7.68421 1.175 8.88421 1.525 9.90088 2.225C10.9342 2.925 11.7092 3.85 12.2259 5L10.2759 6.125C9.52588 4.325 8.20088 3.425 6.30088 3.425C5.35088 3.425 4.58421 3.65833 4.00088 4.125C3.41755 4.59167 3.12588 5.225 3.12588 6.025C3.12588 6.79167 3.40088 7.375 3.95088 7.775C4.50088 8.175 5.45088 8.59167 6.80088 9.025C7.28421 9.175 7.62588 9.28333 7.82588 9.35C8.02588 9.41667 8.33421 9.53333 8.75088 9.7C9.18421 9.86667 9.50088 10 9.70088 10.1C9.90088 10.2 10.1675 10.3417 10.5009 10.525C10.8509 10.7083 11.1092 10.8833 11.2759 11.05C11.4425 11.2167 11.6342 11.425 11.8509 11.675C12.0842 11.9083 12.2509 12.15 12.3509 12.4C12.4509 12.65 12.5342 12.9417 12.6009 13.275C12.6842 13.5917 12.7259 13.9333 12.7259 14.3C12.7259 15.8333 12.1675 17.0583 11.0509 17.975C9.93421 18.875 8.47588 19.325 6.67588 19.325ZM25.897 6.5H28.072V19H25.897V16.85C24.8136 18.5 23.2386 19.325 21.172 19.325C19.422 19.325 17.9303 18.6917 16.697 17.425C15.4636 16.1417 14.847 14.5833 14.847 12.75C14.847 10.9167 15.4636 9.36667 16.697 8.1C17.9303 6.81667 19.422 6.175 21.172 6.175C23.2386 6.175 24.8136 7 25.897 8.65V6.5ZM21.447 17.225C22.7136 17.225 23.772 16.8 24.622 15.95C25.472 15.0833 25.897 14.0167 25.897 12.75C25.897 11.4833 25.472 10.425 24.622 9.575C23.772 8.70833 22.7136 8.275 21.447 8.275C20.197 8.275 19.147 8.70833 18.297 9.575C17.447 10.425 17.022 11.4833 17.022 12.75C17.022 14.0167 17.447 15.0833 18.297 15.95C19.147 16.8 20.197 17.225 21.447 17.225ZM40.1173 6.5H42.4673L37.4673 19H34.9173L29.9173 6.5H32.2673L36.1923 16.675L40.1173 6.5ZM45.3435 13.75C45.5601 14.8667 46.0685 15.7333 46.8685 16.35C47.6851 16.9667 48.6851 17.275 49.8685 17.275C51.5185 17.275 52.7185 16.6667 53.4685 15.45L55.3185 16.5C54.1018 18.3833 52.2685 19.325 49.8185 19.325C47.8351 19.325 46.2185 18.7083 44.9685 17.475C43.7351 16.225 43.1185 14.65 43.1185 12.75C43.1185 10.8667 43.7268 9.3 44.9435 8.05C46.1601 6.8 47.7351 6.175 49.6685 6.175C51.5018 6.175 52.9935 6.825 54.1435 8.125C55.3101 9.40833 55.8935 10.9583 55.8935 12.775C55.8935 13.0917 55.8685 13.4167 55.8185 13.75H45.3435ZM49.6685 8.225C48.5018 8.225 47.5351 8.55833 46.7685 9.225C46.0018 9.875 45.5268 10.75 45.3435 11.85H53.6935C53.5101 10.6667 53.0435 9.76667 52.2935 9.15C51.5435 8.53333 50.6685 8.225 49.6685 8.225ZM70.8687 6.175C72.3353 6.175 73.5103 6.64167 74.3937 7.575C75.277 8.49167 75.7187 9.74167 75.7187 11.325V19H73.5437V11.45C73.5437 10.4333 73.2687 9.65 72.7187 9.1C72.1687 8.53333 71.4103 8.25 70.4437 8.25C69.3603 8.25 68.4853 8.59167 67.8187 9.275C67.152 9.94167 66.8187 10.975 66.8187 12.375V19H64.6437V1.5H66.8187V8.3C67.702 6.88333 69.052 6.175 70.8687 6.175ZM89.305 17.425C88.0216 18.6917 86.4633 19.325 84.63 19.325C82.7966 19.325 81.2383 18.6917 79.955 17.425C78.6883 16.1583 78.055 14.6 78.055 12.75C78.055 10.9 78.6883 9.34167 79.955 8.075C81.2383 6.80833 82.7966 6.175 84.63 6.175C86.4633 6.175 88.0216 6.80833 89.305 8.075C90.5883 9.34167 91.23 10.9 91.23 12.75C91.23 14.6 90.5883 16.1583 89.305 17.425ZM84.63 17.2C85.88 17.2 86.93 16.775 87.78 15.925C88.63 15.075 89.055 14.0167 89.055 12.75C89.055 11.4833 88.63 10.425 87.78 9.575C86.93 8.725 85.88 8.3 84.63 8.3C83.3966 8.3 82.355 8.725 81.505 9.575C80.655 10.425 80.23 11.4833 80.23 12.75C80.23 14.0167 80.655 15.075 81.505 15.925C82.355 16.775 83.3966 17.2 84.63 17.2ZM102.419 6.5H104.594V19H102.419V17.2C101.536 18.6167 100.186 19.325 98.369 19.325C96.9024 19.325 95.7274 18.8667 94.844 17.95C93.9607 17.0167 93.519 15.7583 93.519 14.175V6.5H95.694V14.05C95.694 15.0667 95.969 15.8583 96.519 16.425C97.069 16.975 97.8274 17.25 98.794 17.25C99.8774 17.25 100.752 16.9167 101.419 16.25C102.086 15.5667 102.419 14.525 102.419 13.125V6.5ZM110.08 8.6C110.797 7.05 112.097 6.275 113.98 6.275V8.55C112.914 8.5 111.997 8.78333 111.23 9.4C110.464 10.0167 110.08 11.0083 110.08 12.375V19H107.905V6.5H110.08V8.6ZM117.52 9.875C117.52 10.3583 117.761 10.75 118.245 11.05C118.728 11.3333 119.311 11.5667 119.995 11.75C120.678 11.9167 121.361 12.1167 122.045 12.35C122.728 12.5667 123.311 12.95 123.795 13.5C124.278 14.0333 124.52 14.725 124.52 15.575C124.52 16.7083 124.078 17.6167 123.195 18.3C122.328 18.9833 121.211 19.325 119.845 19.325C118.628 19.325 117.586 19.0583 116.72 18.525C115.853 17.9917 115.236 17.2833 114.87 16.4L116.745 15.325C116.945 15.925 117.32 16.4 117.87 16.75C118.42 17.1 119.078 17.275 119.845 17.275C120.561 17.275 121.153 17.1417 121.62 16.875C122.086 16.5917 122.32 16.1583 122.32 15.575C122.32 15.0917 122.078 14.7083 121.595 14.425C121.111 14.125 120.528 13.8917 119.845 13.725C119.161 13.5417 118.478 13.3333 117.795 13.1C117.111 12.8667 116.528 12.4833 116.045 11.95C115.561 11.4167 115.32 10.7333 115.32 9.9C115.32 8.81667 115.736 7.925 116.57 7.225C117.42 6.525 118.478 6.175 119.745 6.175C120.761 6.175 121.661 6.40833 122.445 6.875C123.245 7.325 123.845 7.95833 124.245 8.775L122.42 9.8C121.97 8.73333 121.078 8.2 119.745 8.2C119.128 8.2 118.603 8.35 118.17 8.65C117.736 8.93333 117.52 9.34167 117.52 9.875ZM143.895 17.425C142.611 18.6917 141.053 19.325 139.22 19.325C137.386 19.325 135.828 18.6917 134.545 17.425C133.278 16.1583 132.645 14.6 132.645 12.75C132.645 10.9 133.278 9.34167 134.545 8.075C135.828 6.80833 137.386 6.175 139.22 6.175C141.053 6.175 142.611 6.80833 143.895 8.075C145.178 9.34167 145.82 10.9 145.82 12.75C145.82 14.6 145.178 16.1583 143.895 17.425ZM139.22 17.2C140.47 17.2 141.52 16.775 142.37 15.925C143.22 15.075 143.645 14.0167 143.645 12.75C143.645 11.4833 143.22 10.425 142.37 9.575C141.52 8.725 140.47 8.3 139.22 8.3C137.986 8.3 136.945 8.725 136.095 9.575C135.245 10.425 134.82 11.4833 134.82 12.75C134.82 14.0167 135.245 15.075 136.095 15.925C136.945 16.775 137.986 17.2 139.22 17.2ZM154.345 3.275C152.145 3.09167 151.045 4.04167 151.045 6.125V6.5H154.345V8.6H151.045V19H148.87V8.6H146.87V6.5H148.87V6.125C148.87 4.44167 149.337 3.16667 150.27 2.3C151.22 1.43333 152.578 1.05833 154.345 1.175V3.275ZM176.976 6.5H179.251L175.376 19H173.151L170.226 9.75L167.301 19H165.076L161.201 6.5H163.476L166.226 16L169.176 6.5H171.276L174.226 16.025L176.976 6.5ZM191.551 17.425C190.268 18.6917 188.709 19.325 186.876 19.325C185.043 19.325 183.484 18.6917 182.201 17.425C180.934 16.1583 180.301 14.6 180.301 12.75C180.301 10.9 180.934 9.34167 182.201 8.075C183.484 6.80833 185.043 6.175 186.876 6.175C188.709 6.175 190.268 6.80833 191.551 8.075C192.834 9.34167 193.476 10.9 193.476 12.75C193.476 14.6 192.834 16.1583 191.551 17.425ZM186.876 17.2C188.126 17.2 189.176 16.775 190.026 15.925C190.876 15.075 191.301 14.0167 191.301 12.75C191.301 11.4833 190.876 10.425 190.026 9.575C189.176 8.725 188.126 8.3 186.876 8.3C185.643 8.3 184.601 8.725 183.751 9.575C182.901 10.425 182.476 11.4833 182.476 12.75C182.476 14.0167 182.901 15.075 183.751 15.925C184.601 16.775 185.643 17.2 186.876 17.2ZM198.215 8.6C198.932 7.05 200.232 6.275 202.115 6.275V8.55C201.048 8.5 200.132 8.78333 199.365 9.4C198.598 10.0167 198.215 11.0083 198.215 12.375V19H196.04V6.5H198.215V8.6ZM214.818 19H212.118L206.418 13.075V19H204.243V1.5H206.418V12.025L211.818 6.5H214.618L208.643 12.55L214.818 19ZM220.091 16.425L218.466 22.5H216.591L217.591 16.425H220.091ZM236.214 8.6H232.889V15.375C232.889 15.9917 233.006 16.4333 233.239 16.7C233.489 16.95 233.864 17.0833 234.364 17.1C234.864 17.1 235.481 17.0833 236.214 17.05V19C234.314 19.25 232.922 19.1 232.039 18.55C231.156 17.9833 230.714 16.925 230.714 15.375V8.6H228.239V6.5H230.714V3.65L232.889 3V6.5H236.214V8.6ZM245.014 6.175C246.481 6.175 247.656 6.64167 248.539 7.575C249.422 8.49167 249.864 9.74167 249.864 11.325V19H247.689V11.45C247.689 10.4333 247.414 9.65 246.864 9.1C246.314 8.53333 245.556 8.25 244.589 8.25C243.506 8.25 242.631 8.59167 241.964 9.275C241.297 9.94167 240.964 10.975 240.964 12.375V19H238.789V1.5H240.964V8.3C241.847 6.88333 243.197 6.175 245.014 6.175ZM263.45 17.425C262.167 18.6917 260.609 19.325 258.775 19.325C256.942 19.325 255.384 18.6917 254.1 17.425C252.834 16.1583 252.2 14.6 252.2 12.75C252.2 10.9 252.834 9.34167 254.1 8.075C255.384 6.80833 256.942 6.175 258.775 6.175C260.609 6.175 262.167 6.80833 263.45 8.075C264.734 9.34167 265.375 10.9 265.375 12.75C265.375 14.6 264.734 16.1583 263.45 17.425ZM258.775 17.2C260.025 17.2 261.075 16.775 261.925 15.925C262.775 15.075 263.2 14.0167 263.2 12.75C263.2 11.4833 262.775 10.425 261.925 9.575C261.075 8.725 260.025 8.3 258.775 8.3C257.542 8.3 256.5 8.725 255.65 9.575C254.8 10.425 254.375 11.4833 254.375 12.75C254.375 14.0167 254.8 15.075 255.65 15.925C256.5 16.775 257.542 17.2 258.775 17.2ZM276.565 6.5H278.74V19H276.565V17.2C275.681 18.6167 274.331 19.325 272.515 19.325C271.048 19.325 269.873 18.8667 268.99 17.95C268.106 17.0167 267.665 15.7583 267.665 14.175V6.5H269.84V14.05C269.84 15.0667 270.115 15.8583 270.665 16.425C271.215 16.975 271.973 17.25 272.94 17.25C274.023 17.25 274.898 16.9167 275.565 16.25C276.231 15.5667 276.565 14.525 276.565 13.125V6.5ZM283.901 9.875C283.901 10.3583 284.143 10.75 284.626 11.05C285.11 11.3333 285.693 11.5667 286.376 11.75C287.06 11.9167 287.743 12.1167 288.426 12.35C289.11 12.5667 289.693 12.95 290.176 13.5C290.66 14.0333 290.901 14.725 290.901 15.575C290.901 16.7083 290.46 17.6167 289.576 18.3C288.71 18.9833 287.593 19.325 286.226 19.325C285.01 19.325 283.968 19.0583 283.101 18.525C282.235 17.9917 281.618 17.2833 281.251 16.4L283.126 15.325C283.326 15.925 283.701 16.4 284.251 16.75C284.801 17.1 285.46 17.275 286.226 17.275C286.943 17.275 287.535 17.1417 288.001 16.875C288.468 16.5917 288.701 16.1583 288.701 15.575C288.701 15.0917 288.46 14.7083 287.976 14.425C287.493 14.125 286.91 13.8917 286.226 13.725C285.543 13.5417 284.86 13.3333 284.176 13.1C283.493 12.8667 282.91 12.4833 282.426 11.95C281.943 11.4167 281.701 10.7333 281.701 9.9C281.701 8.81667 282.118 7.925 282.951 7.225C283.801 6.525 284.86 6.175 286.126 6.175C287.143 6.175 288.043 6.40833 288.826 6.875C289.626 7.325 290.226 7.95833 290.626 8.775L288.801 9.8C288.351 8.73333 287.46 8.2 286.126 8.2C285.51 8.2 284.985 8.35 284.551 8.65C284.118 8.93333 283.901 9.34167 283.901 9.875ZM303.485 6.5H305.66V19H303.485V16.85C302.402 18.5 300.827 19.325 298.76 19.325C297.01 19.325 295.518 18.6917 294.285 17.425C293.052 16.1417 292.435 14.5833 292.435 12.75C292.435 10.9167 293.052 9.36667 294.285 8.1C295.518 6.81667 297.01 6.175 298.76 6.175C300.827 6.175 302.402 7 303.485 8.65V6.5ZM299.035 17.225C300.302 17.225 301.36 16.8 302.21 15.95C303.06 15.0833 303.485 14.0167 303.485 12.75C303.485 11.4833 303.06 10.425 302.21 9.575C301.36 8.70833 300.302 8.275 299.035 8.275C297.785 8.275 296.735 8.70833 295.885 9.575C295.035 10.425 294.61 11.4833 294.61 12.75C294.61 14.0167 295.035 15.0833 295.885 15.95C296.735 16.8 297.785 17.225 299.035 17.225ZM315.18 6.175C316.647 6.175 317.822 6.64167 318.705 7.575C319.589 8.49167 320.03 9.74167 320.03 11.325V19H317.855V11.45C317.855 10.4333 317.58 9.65 317.03 9.1C316.48 8.53333 315.722 8.25 314.755 8.25C313.672 8.25 312.797 8.59167 312.13 9.275C311.464 9.94167 311.13 10.975 311.13 12.375V19H308.955V6.5H311.13V8.3C312.014 6.88333 313.364 6.175 315.18 6.175ZM333.417 1.5H335.592V19H333.417V16.85C332.333 18.5 330.758 19.325 328.692 19.325C326.942 19.325 325.45 18.6917 324.217 17.425C322.983 16.1417 322.367 14.5833 322.367 12.75C322.367 10.9167 322.983 9.36667 324.217 8.1C325.45 6.81667 326.942 6.175 328.692 6.175C330.758 6.175 332.333 7 333.417 8.65V1.5ZM328.967 17.225C330.233 17.225 331.292 16.8 332.142 15.95C332.992 15.0833 333.417 14.0167 333.417 12.75C333.417 11.4833 332.992 10.425 332.142 9.575C331.292 8.70833 330.233 8.275 328.967 8.275C327.717 8.275 326.667 8.70833 325.817 9.575C324.967 10.425 324.542 11.4833 324.542 12.75C324.542 14.0167 324.967 15.0833 325.817 15.95C326.667 16.8 327.717 17.225 328.967 17.225ZM340.737 9.875C340.737 10.3583 340.979 10.75 341.462 11.05C341.946 11.3333 342.529 11.5667 343.212 11.75C343.896 11.9167 344.579 12.1167 345.262 12.35C345.946 12.5667 346.529 12.95 347.012 13.5C347.496 14.0333 347.737 14.725 347.737 15.575C347.737 16.7083 347.296 17.6167 346.412 18.3C345.546 18.9833 344.429 19.325 343.062 19.325C341.846 19.325 340.804 19.0583 339.937 18.525C339.071 17.9917 338.454 17.2833 338.087 16.4L339.962 15.325C340.162 15.925 340.537 16.4 341.087 16.75C341.637 17.1 342.296 17.275 343.062 17.275C343.779 17.275 344.371 17.1417 344.837 16.875C345.304 16.5917 345.537 16.1583 345.537 15.575C345.537 15.0917 345.296 14.7083 344.812 14.425C344.329 14.125 343.746 13.8917 343.062 13.725C342.379 13.5417 341.696 13.3333 341.012 13.1C340.329 12.8667 339.746 12.4833 339.262 11.95C338.779 11.4167 338.537 10.7333 338.537 9.9C338.537 8.81667 338.954 7.925 339.787 7.225C340.637 6.525 341.696 6.175 342.962 6.175C343.979 6.175 344.879 6.40833 345.662 6.875C346.462 7.325 347.062 7.95833 347.462 8.775L345.637 9.8C345.187 8.73333 344.296 8.2 342.962 8.2C342.346 8.2 341.821 8.35 341.387 8.65C340.954 8.93333 340.737 9.34167 340.737 9.875ZM367.113 17.425C365.829 18.6917 364.271 19.325 362.438 19.325C360.604 19.325 359.046 18.6917 357.763 17.425C356.496 16.1583 355.863 14.6 355.863 12.75C355.863 10.9 356.496 9.34167 357.763 8.075C359.046 6.80833 360.604 6.175 362.438 6.175C364.271 6.175 365.829 6.80833 367.113 8.075C368.396 9.34167 369.038 10.9 369.038 12.75C369.038 14.6 368.396 16.1583 367.113 17.425ZM362.438 17.2C363.688 17.2 364.738 16.775 365.588 15.925C366.438 15.075 366.863 14.0167 366.863 12.75C366.863 11.4833 366.438 10.425 365.588 9.575C364.738 8.725 363.688 8.3 362.438 8.3C361.204 8.3 360.163 8.725 359.313 9.575C358.463 10.425 358.038 11.4833 358.038 12.75C358.038 14.0167 358.463 15.075 359.313 15.925C360.163 16.775 361.204 17.2 362.438 17.2ZM377.563 3.275C375.363 3.09167 374.263 4.04167 374.263 6.125V6.5H377.563V8.6H374.263V19H372.088V8.6H370.088V6.5H372.088V6.125C372.088 4.44167 372.554 3.16667 373.488 2.3C374.438 1.43333 375.796 1.05833 377.563 1.175V3.275ZM395.819 1.5H397.994V19H395.819V16.85C394.736 18.5 393.161 19.325 391.094 19.325C389.344 19.325 387.852 18.6917 386.619 17.425C385.386 16.1417 384.769 14.5833 384.769 12.75C384.769 10.9167 385.386 9.36667 386.619 8.1C387.852 6.81667 389.344 6.175 391.094 6.175C393.161 6.175 394.736 7 395.819 8.65V1.5ZM391.369 17.225C392.636 17.225 393.694 16.8 394.544 15.95C395.394 15.0833 395.819 14.0167 395.819 12.75C395.819 11.4833 395.394 10.425 394.544 9.575C393.694 8.70833 392.636 8.275 391.369 8.275C390.119 8.275 389.069 8.70833 388.219 9.575C387.369 10.425 386.944 11.4833 386.944 12.75C386.944 14.0167 387.369 15.0833 388.219 15.95C389.069 16.8 390.119 17.225 391.369 17.225ZM411.839 17.425C410.556 18.6917 408.997 19.325 407.164 19.325C405.331 19.325 403.772 18.6917 402.489 17.425C401.222 16.1583 400.589 14.6 400.589 12.75C400.589 10.9 401.222 9.34167 402.489 8.075C403.772 6.80833 405.331 6.175 407.164 6.175C408.997 6.175 410.556 6.80833 411.839 8.075C413.122 9.34167 413.764 10.9 413.764 12.75C413.764 14.6 413.122 16.1583 411.839 17.425ZM407.164 17.2C408.414 17.2 409.464 16.775 410.314 15.925C411.164 15.075 411.589 14.0167 411.589 12.75C411.589 11.4833 411.164 10.425 410.314 9.575C409.464 8.725 408.414 8.3 407.164 8.3C405.931 8.3 404.889 8.725 404.039 9.575C403.189 10.425 402.764 11.4833 402.764 12.75C402.764 14.0167 403.189 15.075 404.039 15.925C404.889 16.775 405.931 17.2 407.164 17.2ZM416.328 19V0.75H418.503V19H416.328ZM421.821 19V0.75H423.996V19H421.821ZM437.665 6.5H439.84V19H437.665V16.85C436.581 18.5 435.006 19.325 432.94 19.325C431.19 19.325 429.698 18.6917 428.465 17.425C427.231 16.1417 426.615 14.5833 426.615 12.75C426.615 10.9167 427.231 9.36667 428.465 8.1C429.698 6.81667 431.19 6.175 432.94 6.175C435.006 6.175 436.581 7 437.665 8.65V6.5ZM433.215 17.225C434.481 17.225 435.54 16.8 436.39 15.95C437.24 15.0833 437.665 14.0167 437.665 12.75C437.665 11.4833 437.24 10.425 436.39 9.575C435.54 8.70833 434.481 8.275 433.215 8.275C431.965 8.275 430.915 8.70833 430.065 9.575C429.215 10.425 428.79 11.4833 428.79 12.75C428.79 14.0167 429.215 15.0833 430.065 15.95C430.915 16.8 431.965 17.225 433.215 17.225ZM445.31 8.6C446.027 7.05 447.327 6.275 449.21 6.275V8.55C448.143 8.5 447.227 8.78333 446.46 9.4C445.693 10.0167 445.31 11.0083 445.31 12.375V19H443.135V6.5H445.31V8.6ZM452.749 9.875C452.749 10.3583 452.991 10.75 453.474 11.05C453.957 11.3333 454.541 11.5667 455.224 11.75C455.907 11.9167 456.591 12.1167 457.274 12.35C457.957 12.5667 458.541 12.95 459.024 13.5C459.507 14.0333 459.749 14.725 459.749 15.575C459.749 16.7083 459.307 17.6167 458.424 18.3C457.557 18.9833 456.441 19.325 455.074 19.325C453.857 19.325 452.816 19.0583 451.949 18.525C451.082 17.9917 450.466 17.2833 450.099 16.4L451.974 15.325C452.174 15.925 452.549 16.4 453.099 16.75C453.649 17.1 454.307 17.275 455.074 17.275C455.791 17.275 456.382 17.1417 456.849 16.875C457.316 16.5917 457.549 16.1583 457.549 15.575C457.549 15.0917 457.307 14.7083 456.824 14.425C456.341 14.125 455.757 13.8917 455.074 13.725C454.391 13.5417 453.707 13.3333 453.024 13.1C452.341 12.8667 451.757 12.4833 451.274 11.95C450.791 11.4167 450.549 10.7333 450.549 9.9C450.549 8.81667 450.966 7.925 451.799 7.225C452.649 6.525 453.707 6.175 454.974 6.175C455.991 6.175 456.891 6.40833 457.674 6.875C458.474 7.325 459.074 7.95833 459.474 8.775L457.649 9.8C457.199 8.73333 456.307 8.2 454.974 8.2C454.357 8.2 453.832 8.35 453.399 8.65C452.966 8.93333 452.749 9.34167 452.749 9.875ZM478.924 6.5H481.099V19H478.924V16.85C477.841 18.5 476.266 19.325 474.199 19.325C472.449 19.325 470.958 18.6917 469.724 17.425C468.491 16.1417 467.874 14.5833 467.874 12.75C467.874 10.9167 468.491 9.36667 469.724 8.1C470.958 6.81667 472.449 6.175 474.199 6.175C476.266 6.175 477.841 7 478.924 8.65V6.5ZM474.474 17.225C475.741 17.225 476.799 16.8 477.649 15.95C478.499 15.0833 478.924 14.0167 478.924 12.75C478.924 11.4833 478.499 10.425 477.649 9.575C476.799 8.70833 475.741 8.275 474.474 8.275C473.224 8.275 472.174 8.70833 471.324 9.575C470.474 10.425 470.049 11.4833 470.049 12.75C470.049 14.0167 470.474 15.0833 471.324 15.95C472.174 16.8 473.224 17.225 474.474 17.225ZM490.62 6.175C492.086 6.175 493.261 6.64167 494.145 7.575C495.028 8.49167 495.47 9.74167 495.47 11.325V19H493.295V11.45C493.295 10.4333 493.02 9.65 492.47 9.1C491.92 8.53333 491.161 8.25 490.195 8.25C489.111 8.25 488.236 8.59167 487.57 9.275C486.903 9.94167 486.57 10.975 486.57 12.375V19H484.395V6.5H486.57V8.3C487.453 6.88333 488.803 6.175 490.62 6.175ZM508.856 1.5H511.031V19H508.856V16.85C507.773 18.5 506.198 19.325 504.131 19.325C502.381 19.325 500.889 18.6917 499.656 17.425C498.423 16.1417 497.806 14.5833 497.806 12.75C497.806 10.9167 498.423 9.36667 499.656 8.1C500.889 6.81667 502.381 6.175 504.131 6.175C506.198 6.175 507.773 7 508.856 8.65V1.5ZM504.406 17.225C505.673 17.225 506.731 16.8 507.581 15.95C508.431 15.0833 508.856 14.0167 508.856 12.75C508.856 11.4833 508.431 10.425 507.581 9.575C506.731 8.70833 505.673 8.275 504.406 8.275C503.156 8.275 502.106 8.70833 501.256 9.575C500.406 10.425 499.981 11.4833 499.981 12.75C499.981 14.0167 500.406 15.0833 501.256 15.95C502.106 16.8 503.156 17.225 504.406 17.225Z" fill="white"/>
<path d="M535.301 6.5H537.576L533.701 19H531.476L528.551 9.75L525.626 19H523.401L519.526 6.5H521.801L524.551 16L527.501 6.5H529.601L532.551 16.025L535.301 6.5ZM540.915 4.225C540.498 4.225 540.148 4.08333 539.865 3.8C539.581 3.51667 539.44 3.175 539.44 2.775C539.44 2.375 539.581 2.03333 539.865 1.75C540.148 1.45 540.498 1.3 540.915 1.3C541.315 1.3 541.656 1.45 541.94 1.75C542.223 2.03333 542.365 2.375 542.365 2.775C542.365 3.175 542.223 3.51667 541.94 3.8C541.656 4.08333 541.315 4.225 540.915 4.225ZM539.815 19V6.5H541.99V19H539.815ZM551.533 6.175C552.999 6.175 554.174 6.64167 555.058 7.575C555.941 8.49167 556.383 9.74167 556.383 11.325V19H554.208V11.45C554.208 10.4333 553.933 9.65 553.383 9.1C552.833 8.53333 552.074 8.25 551.108 8.25C550.024 8.25 549.149 8.59167 548.483 9.275C547.816 9.94167 547.483 10.975 547.483 12.375V19H545.308V6.5H547.483V8.3C548.366 6.88333 549.716 6.175 551.533 6.175ZM571.894 6.175C573.361 6.175 574.536 6.64167 575.419 7.575C576.302 8.49167 576.744 9.74167 576.744 11.325V19H574.569V11.45C574.569 10.4333 574.294 9.65 573.744 9.1C573.194 8.53333 572.436 8.25 571.469 8.25C570.386 8.25 569.511 8.59167 568.844 9.275C568.177 9.94167 567.844 10.975 567.844 12.375V19H565.669V6.5H567.844V8.3C568.727 6.88333 570.077 6.175 571.894 6.175ZM581.305 13.75C581.522 14.8667 582.03 15.7333 582.83 16.35C583.647 16.9667 584.647 17.275 585.83 17.275C587.48 17.275 588.68 16.6667 589.43 15.45L591.28 16.5C590.064 18.3833 588.23 19.325 585.78 19.325C583.797 19.325 582.18 18.7083 580.93 17.475C579.697 16.225 579.08 14.65 579.08 12.75C579.08 10.8667 579.689 9.3 580.905 8.05C582.122 6.8 583.697 6.175 585.63 6.175C587.464 6.175 588.955 6.825 590.105 8.125C591.272 9.40833 591.855 10.9583 591.855 12.775C591.855 13.0917 591.83 13.4167 591.78 13.75H581.305ZM585.63 8.225C584.464 8.225 583.497 8.55833 582.73 9.225C581.964 9.875 581.489 10.75 581.305 11.85H589.655C589.472 10.6667 589.005 9.76667 588.255 9.15C587.505 8.53333 586.63 8.225 585.63 8.225ZM608.592 6.5H610.867L606.992 19H604.767L601.842 9.75L598.917 19H596.692L592.817 6.5H595.092L597.842 16L600.792 6.5H602.892L605.842 16.025L608.592 6.5ZM625.231 19.325C623.347 19.325 621.781 18.7 620.531 17.45C619.281 16.1833 618.656 14.6167 618.656 12.75C618.656 10.8833 619.281 9.325 620.531 8.075C621.781 6.80833 623.347 6.175 625.231 6.175C626.464 6.175 627.572 6.475 628.556 7.075C629.539 7.65833 630.272 8.45 630.756 9.45L628.931 10.5C628.614 9.83333 628.122 9.3 627.456 8.9C626.806 8.5 626.064 8.3 625.231 8.3C623.981 8.3 622.931 8.725 622.081 9.575C621.247 10.425 620.831 11.4833 620.831 12.75C620.831 14 621.247 15.05 622.081 15.9C622.931 16.75 623.981 17.175 625.231 17.175C626.064 17.175 626.814 16.9833 627.481 16.6C628.147 16.2 628.656 15.6667 629.006 15L630.856 16.075C630.322 17.0583 629.556 17.85 628.556 18.45C627.556 19.0333 626.447 19.325 625.231 19.325ZM633.003 19V0.75H635.178V19H633.003ZM639.596 4.225C639.18 4.225 638.83 4.08333 638.546 3.8C638.263 3.51667 638.121 3.175 638.121 2.775C638.121 2.375 638.263 2.03333 638.546 1.75C638.83 1.45 639.18 1.3 639.596 1.3C639.996 1.3 640.338 1.45 640.621 1.75C640.905 2.03333 641.046 2.375 641.046 2.775C641.046 3.175 640.905 3.51667 640.621 3.8C640.338 4.08333 639.996 4.225 639.596 4.225ZM638.496 19V6.5H640.671V19H638.496ZM645.514 13.75C645.731 14.8667 646.239 15.7333 647.039 16.35C647.856 16.9667 648.856 17.275 650.039 17.275C651.689 17.275 652.889 16.6667 653.639 15.45L655.489 16.5C654.273 18.3833 652.439 19.325 649.989 19.325C648.006 19.325 646.389 18.7083 645.139 17.475C643.906 16.225 643.289 14.65 643.289 12.75C643.289 10.8667 643.898 9.3 645.114 8.05C646.331 6.8 647.906 6.175 649.839 6.175C651.673 6.175 653.164 6.825 654.314 8.125C655.481 9.40833 656.064 10.9583 656.064 12.775C656.064 13.0917 656.039 13.4167 655.989 13.75H645.514ZM649.839 8.225C648.673 8.225 647.706 8.55833 646.939 9.225C646.173 9.875 645.698 10.75 645.514 11.85H653.864C653.681 10.6667 653.214 9.76667 652.464 9.15C651.714 8.53333 650.839 8.225 649.839 8.225ZM664.79 6.175C666.256 6.175 667.431 6.64167 668.315 7.575C669.198 8.49167 669.64 9.74167 669.64 11.325V19H667.465V11.45C667.465 10.4333 667.19 9.65 666.64 9.1C666.09 8.53333 665.331 8.25 664.365 8.25C663.281 8.25 662.406 8.59167 661.74 9.275C661.073 9.94167 660.74 10.975 660.74 12.375V19H658.565V6.5H660.74V8.3C661.623 6.88333 662.973 6.175 664.79 6.175ZM679.476 8.6H676.151V15.375C676.151 15.9917 676.268 16.4333 676.501 16.7C676.751 16.95 677.126 17.0833 677.626 17.1C678.126 17.1 678.743 17.0833 679.476 17.05V19C677.576 19.25 676.184 19.1 675.301 18.55C674.418 17.9833 673.976 16.925 673.976 15.375V8.6H671.501V6.5H673.976V3.65L676.151 3V6.5H679.476V8.6ZM683.316 9.875C683.316 10.3583 683.557 10.75 684.041 11.05C684.524 11.3333 685.107 11.5667 685.791 11.75C686.474 11.9167 687.157 12.1167 687.841 12.35C688.524 12.5667 689.107 12.95 689.591 13.5C690.074 14.0333 690.316 14.725 690.316 15.575C690.316 16.7083 689.874 17.6167 688.991 18.3C688.124 18.9833 687.007 19.325 685.641 19.325C684.424 19.325 683.382 19.0583 682.516 18.525C681.649 17.9917 681.032 17.2833 680.666 16.4L682.541 15.325C682.741 15.925 683.116 16.4 683.666 16.75C684.216 17.1 684.874 17.275 685.641 17.275C686.357 17.275 686.949 17.1417 687.416 16.875C687.882 16.5917 688.116 16.1583 688.116 15.575C688.116 15.0917 687.874 14.7083 687.391 14.425C686.907 14.125 686.324 13.8917 685.641 13.725C684.957 13.5417 684.274 13.3333 683.591 13.1C682.907 12.8667 682.324 12.4833 681.841 11.95C681.357 11.4167 681.116 10.7333 681.116 9.9C681.116 8.81667 681.532 7.925 682.366 7.225C683.216 6.525 684.274 6.175 685.541 6.175C686.557 6.175 687.457 6.40833 688.241 6.875C689.041 7.325 689.641 7.95833 690.041 8.775L688.216 9.8C687.766 8.73333 686.874 8.2 685.541 8.2C684.924 8.2 684.399 8.35 683.966 8.65C683.532 8.93333 683.316 9.34167 683.316 9.875ZM700.666 13.75C700.882 14.8667 701.391 15.7333 702.191 16.35C703.007 16.9667 704.007 17.275 705.191 17.275C706.841 17.275 708.041 16.6667 708.791 15.45L710.641 16.5C709.424 18.3833 707.591 19.325 705.141 19.325C703.157 19.325 701.541 18.7083 700.291 17.475C699.057 16.225 698.441 14.65 698.441 12.75C698.441 10.8667 699.049 9.3 700.266 8.05C701.482 6.8 703.057 6.175 704.991 6.175C706.824 6.175 708.316 6.825 709.466 8.125C710.632 9.40833 711.216 10.9583 711.216 12.775C711.216 13.0917 711.191 13.4167 711.141 13.75H700.666ZM704.991 8.225C703.824 8.225 702.857 8.55833 702.091 9.225C701.324 9.875 700.849 10.75 700.666 11.85H709.016C708.832 10.6667 708.366 9.76667 707.616 9.15C706.866 8.53333 705.991 8.225 704.991 8.225ZM721.978 6.5H724.328L719.328 19H716.778L711.778 6.5H714.128L718.053 16.675L721.978 6.5ZM727.204 13.75C727.42 14.8667 727.929 15.7333 728.729 16.35C729.545 16.9667 730.545 17.275 731.729 17.275C733.379 17.275 734.579 16.6667 735.329 15.45L737.179 16.5C735.962 18.3833 734.129 19.325 731.679 19.325C729.695 19.325 728.079 18.7083 726.829 17.475C725.595 16.225 724.979 14.65 724.979 12.75C724.979 10.8667 725.587 9.3 726.804 8.05C728.02 6.8 729.595 6.175 731.529 6.175C733.362 6.175 734.854 6.825 736.004 8.125C737.17 9.40833 737.754 10.9583 737.754 12.775C737.754 13.0917 737.729 13.4167 737.679 13.75H727.204ZM731.529 8.225C730.362 8.225 729.395 8.55833 728.629 9.225C727.862 9.875 727.387 10.75 727.204 11.85H735.554C735.37 10.6667 734.904 9.76667 734.154 9.15C733.404 8.53333 732.529 8.225 731.529 8.225ZM742.429 8.6C743.146 7.05 744.446 6.275 746.329 6.275V8.55C745.262 8.5 744.346 8.78333 743.579 9.4C742.812 10.0167 742.429 11.0083 742.429 12.375V19H740.254V6.5H742.429V8.6ZM757.451 6.5H759.776L754.676 19.775C754.142 21.1917 753.392 22.2667 752.426 23C751.476 23.75 750.376 24.0833 749.126 24V21.975C750.659 22.0917 751.784 21.2417 752.501 19.425L752.726 18.95L747.276 6.5H749.601L753.851 16.3L757.451 6.5ZM769.717 9.875C769.717 10.3583 769.959 10.75 770.442 11.05C770.925 11.3333 771.509 11.5667 772.192 11.75C772.875 11.9167 773.559 12.1167 774.242 12.35C774.925 12.5667 775.509 12.95 775.992 13.5C776.475 14.0333 776.717 14.725 776.717 15.575C776.717 16.7083 776.275 17.6167 775.392 18.3C774.525 18.9833 773.409 19.325 772.042 19.325C770.825 19.325 769.784 19.0583 768.917 18.525C768.05 17.9917 767.434 17.2833 767.067 16.4L768.942 15.325C769.142 15.925 769.517 16.4 770.067 16.75C770.617 17.1 771.275 17.275 772.042 17.275C772.759 17.275 773.35 17.1417 773.817 16.875C774.284 16.5917 774.517 16.1583 774.517 15.575C774.517 15.0917 774.275 14.7083 773.792 14.425C773.309 14.125 772.725 13.8917 772.042 13.725C771.359 13.5417 770.675 13.3333 769.992 13.1C769.309 12.8667 768.725 12.4833 768.242 11.95C767.759 11.4167 767.517 10.7333 767.517 9.9C767.517 8.81667 767.934 7.925 768.767 7.225C769.617 6.525 770.675 6.175 771.942 6.175C772.959 6.175 773.859 6.40833 774.642 6.875C775.442 7.325 776.042 7.95833 776.442 8.775L774.617 9.8C774.167 8.73333 773.275 8.2 771.942 8.2C771.325 8.2 770.8 8.35 770.367 8.65C769.934 8.93333 769.717 9.34167 769.717 9.875ZM780.27 4.225C779.853 4.225 779.503 4.08333 779.22 3.8C778.937 3.51667 778.795 3.175 778.795 2.775C778.795 2.375 778.937 2.03333 779.22 1.75C779.503 1.45 779.853 1.3 780.27 1.3C780.67 1.3 781.012 1.45 781.295 1.75C781.578 2.03333 781.72 2.375 781.72 2.775C781.72 3.175 781.578 3.51667 781.295 3.8C781.012 4.08333 780.67 4.225 780.27 4.225ZM779.17 19V6.5H781.345V19H779.17ZM790.888 6.175C792.355 6.175 793.53 6.64167 794.413 7.575C795.297 8.49167 795.738 9.74167 795.738 11.325V19H793.563V11.45C793.563 10.4333 793.288 9.65 792.738 9.1C792.188 8.53333 791.43 8.25 790.463 8.25C789.38 8.25 788.505 8.59167 787.838 9.275C787.172 9.94167 786.838 10.975 786.838 12.375V19H784.663V6.5H786.838V8.3C787.722 6.88333 789.072 6.175 790.888 6.175ZM809.15 6.5H811.3V18.475C811.3 20.325 810.675 21.7583 809.425 22.775C808.175 23.8083 806.675 24.325 804.925 24.325C803.525 24.325 802.316 24.0583 801.3 23.525C800.283 23.0083 799.516 22.2583 799 21.275L800.9 20.2C801.583 21.6 802.941 22.3 804.975 22.3C806.275 22.3 807.291 21.9583 808.025 21.275C808.775 20.5917 809.15 19.6583 809.15 18.475V16.7C808.05 18.3667 806.483 19.2 804.45 19.2C802.666 19.2 801.158 18.5667 799.925 17.3C798.691 16.0333 798.075 14.4917 798.075 12.675C798.075 10.8583 798.691 9.325 799.925 8.075C801.158 6.80833 802.666 6.175 804.45 6.175C806.5 6.175 808.066 7 809.15 8.65V6.5ZM801.525 15.85C802.375 16.7 803.433 17.125 804.7 17.125C805.966 17.125 807.025 16.7 807.875 15.85C808.725 15 809.15 13.9417 809.15 12.675C809.15 11.425 808.725 10.375 807.875 9.525C807.025 8.675 805.966 8.25 804.7 8.25C803.433 8.25 802.375 8.675 801.525 9.525C800.675 10.375 800.25 11.425 800.25 12.675C800.25 13.9417 800.675 15 801.525 15.85ZM814.595 19V0.75H816.77V19H814.595ZM821.613 13.75C821.83 14.8667 822.338 15.7333 823.138 16.35C823.955 16.9667 824.955 17.275 826.138 17.275C827.788 17.275 828.988 16.6667 829.738 15.45L831.588 16.5C830.371 18.3833 828.538 19.325 826.088 19.325C824.105 19.325 822.488 18.7083 821.238 17.475C820.005 16.225 819.388 14.65 819.388 12.75C819.388 10.8667 819.996 9.3 821.213 8.05C822.43 6.8 824.005 6.175 825.938 6.175C827.771 6.175 829.263 6.825 830.413 8.125C831.58 9.40833 832.163 10.9583 832.163 12.775C832.163 13.0917 832.138 13.4167 832.088 13.75H821.613ZM825.938 8.225C824.771 8.225 823.805 8.55833 823.038 9.225C822.271 9.875 821.796 10.75 821.613 11.85H829.963C829.78 10.6667 829.313 9.76667 828.563 9.15C827.813 8.53333 826.938 8.225 825.938 8.225ZM851.263 1.5H853.438V19H851.263V16.85C850.18 18.5 848.605 19.325 846.538 19.325C844.788 19.325 843.297 18.6917 842.063 17.425C840.83 16.1417 840.213 14.5833 840.213 12.75C840.213 10.9167 840.83 9.36667 842.063 8.1C843.297 6.81667 844.788 6.175 846.538 6.175C848.605 6.175 850.18 7 851.263 8.65V1.5ZM846.813 17.225C848.08 17.225 849.138 16.8 849.988 15.95C850.838 15.0833 851.263 14.0167 851.263 12.75C851.263 11.4833 850.838 10.425 849.988 9.575C849.138 8.70833 848.08 8.275 846.813 8.275C845.563 8.275 844.513 8.70833 843.663 9.575C842.813 10.425 842.388 11.4833 842.388 12.75C842.388 14.0167 842.813 15.0833 843.663 15.95C844.513 16.8 845.563 17.225 846.813 17.225ZM867.083 6.5H869.258V19H867.083V16.85C866 18.5 864.425 19.325 862.358 19.325C860.608 19.325 859.117 18.6917 857.883 17.425C856.65 16.1417 856.033 14.5833 856.033 12.75C856.033 10.9167 856.65 9.36667 857.883 8.1C859.117 6.81667 860.608 6.175 862.358 6.175C864.425 6.175 866 7 867.083 8.65V6.5ZM862.633 17.225C863.9 17.225 864.958 16.8 865.808 15.95C866.658 15.0833 867.083 14.0167 867.083 12.75C867.083 11.4833 866.658 10.425 865.808 9.575C864.958 8.70833 863.9 8.275 862.633 8.275C861.383 8.275 860.333 8.70833 859.483 9.575C858.633 10.425 858.208 11.4833 858.208 12.75C858.208 14.0167 858.633 15.0833 859.483 15.95C860.333 16.8 861.383 17.225 862.633 17.225ZM881.279 6.5H883.604L878.504 19.775C877.97 21.1917 877.22 22.2667 876.254 23C875.304 23.75 874.204 24.0833 872.954 24V21.975C874.487 22.0917 875.612 21.2417 876.329 19.425L876.554 18.95L871.104 6.5H873.429L877.679 16.3L881.279 6.5ZM885.97 13.875L885.495 6.5V1.5H888.12V6.5L887.645 13.875H885.97ZM886.795 19.275C886.345 19.275 885.962 19.1167 885.645 18.8C885.328 18.4833 885.17 18.1 885.17 17.65C885.17 17.2 885.328 16.8167 885.645 16.5C885.962 16.1833 886.345 16.025 886.795 16.025C887.262 16.025 887.645 16.1833 887.945 16.5C888.262 16.8167 888.42 17.2 888.42 17.65C888.42 18.1 888.262 18.4833 887.945 18.8C887.645 19.1167 887.262 19.275 886.795 19.275Z" fill="#FFEE58"/>
<path d="M518.926 21.5H889.845V22.75H518.926V21.5Z" fill="#FFEE58"/>
</svg>
